<svg width="100" height="74" viewBox="0 0 100 74" fill="none" xmlns="http://www.w3.org/2000/svg">
<path d="M70.2901 17.2005C70.0011 15.698 69.5433 14.2485 68.921 12.8477C68.8054 12.5914 68.6854 12.3395 68.5609 12.092C68.4365 11.8445 68.3031 11.5971 68.1698 11.354C68.032 11.111 67.8942 10.8679 67.7475 10.6293C67.6008 10.3906 67.4497 10.1564 67.2941 9.92664C67.1385 9.69685 66.9785 9.46705 66.8096 9.24168C66.6407 9.0163 66.4718 8.79535 66.2984 8.57881C66.1251 8.36227 65.9428 8.14574 65.7561 7.93804C65.5694 7.72592 65.3827 7.52264 65.1871 7.31936C64.9916 7.11608 64.796 6.91722 64.596 6.7272C64.3959 6.53276 64.187 6.34274 63.9781 6.15713C63.7692 5.97153 63.5558 5.79034 63.338 5.61358C63.1202 5.43682 62.898 5.26447 62.6757 5.09654C62.4535 4.92862 62.2223 4.76511 61.9912 4.61044C61.76 4.45577 61.5244 4.3011 61.2844 4.15085C61.0444 4.00502 60.8043 3.85919 60.5599 3.7222C60.3154 3.5852 60.0709 3.45263 59.8175 3.32448C59.5686 3.19632 59.3153 3.07701 59.0619 2.95769C58.8085 2.84279 58.5507 2.7279 58.2885 2.62184C58.0306 2.51578 57.7684 2.41414 57.5017 2.32134C57.2394 2.22853 56.9727 2.13573 56.706 2.05177C56.4393 1.96781 56.1682 1.88826 55.897 1.81756C55.6259 1.74685 55.3547 1.67614 55.0791 1.6187C54.8035 1.55683 54.5324 1.5038 54.2524 1.45077C53.9768 1.40216 53.7012 1.35797 53.4211 1.3182C53.1411 1.27842 52.8655 1.24749 52.5855 1.22098C52.3054 1.19446 52.0254 1.17237 51.7454 1.15911C51.4653 1.14585 51.1853 1.13701 50.9052 1.13259C50.6252 1.12817 50.3452 1.13259 50.0651 1.14143C49.7851 1.15027 49.5051 1.16353 49.225 1.18562C48.945 1.20772 48.6649 1.23423 48.3894 1.26517C48.1138 1.2961 47.8337 1.33587 47.5537 1.38006C47.2781 1.42426 47.0025 1.47287 46.7269 1.53031C45.9713 1.68056 45.2289 1.87501 44.4999 2.11364C43.442 2.37437 42.4108 2.72789 41.4106 3.16097C41.095 3.30238 40.7794 3.44821 40.4727 3.60288C40.1616 3.75755 39.8593 3.92106 39.5571 4.0934C39.2548 4.26575 38.9614 4.44251 38.6681 4.63254C38.3747 4.81814 38.0902 5.01258 37.8102 5.21586C37.5301 5.41914 37.2545 5.62684 36.9834 5.84337C36.7122 6.05991 36.45 6.28087 36.1877 6.51066C35.9255 6.74046 35.6765 6.97467 35.4276 7.21772C35.1787 7.46077 34.9387 7.70824 34.7075 7.96455C34.4719 8.22086 34.2452 8.48159 34.0274 8.74674C33.8052 9.01188 33.5918 9.28587 33.3874 9.55985C33.1829 9.83826 32.9829 10.1211 32.7917 10.4083C32.6006 10.6956 32.4139 10.9872 32.2405 11.2833C32.0627 11.5794 31.8938 11.8799 31.7338 12.1848C31.5738 12.4897 31.4182 12.7991 31.276 13.1128C31.1293 13.4266 30.9959 13.7448 30.867 14.0629C30.7381 14.3811 30.6181 14.7081 30.507 15.0351C30.3958 15.3622 30.2936 15.6892 30.1958 16.0206C30.1025 16.352 30.0136 16.6879 29.938 17.0237C29.8624 17.3596 29.7913 17.6999 29.7335 18.0357C29.6757 18.376 29.6224 18.7163 29.5824 19.061C29.5424 19.4012 29.5068 19.7459 29.4846 20.0906C29.4624 20.4353 29.4446 20.78 29.4402 21.1247C29.4357 21.4694 29.4357 21.8141 29.449 22.1588C29.4624 22.5035 29.4802 22.8481 29.5113 23.1928C29.5424 23.5375 29.578 23.8778 29.6268 24.2225C29.6757 24.5672 29.7291 24.903 29.7958 25.2433C29.8624 25.5836 29.9336 25.9194 30.018 26.2553C30.1025 26.5911 30.1914 26.9226 30.2892 27.254C30.387 27.5854 30.4981 27.9125 30.6136 28.2351C30.7292 28.5576 30.8537 28.8802 30.987 29.1984C31.1204 29.5166 31.2626 29.8304 31.4138 30.1441C31.5649 30.4535 31.7205 30.7628 31.8849 31.0633C32.3605 31.9294 32.894 32.7602 33.4851 33.5513C34.0852 34.3334 34.7386 35.0714 35.441 35.7652C35.6143 35.9376 35.7877 36.1055 35.9655 36.269C36.1433 36.4325 36.3255 36.596 36.5078 36.7507C36.69 36.9098 36.8812 37.0645 37.0678 37.2147C37.259 37.365 37.4501 37.5152 37.6457 37.6566C37.8413 37.8024 38.0369 37.9394 38.2413 38.0764C38.4414 38.2134 38.6458 38.346 38.8503 38.4786C39.0548 38.6067 39.2637 38.7349 39.4726 38.8586C39.6815 38.9824 39.8949 39.0973 40.1082 39.2121C40.3216 39.327 40.5394 39.4375 40.7572 39.5436C40.975 39.6496 41.1973 39.7513 41.4195 39.8529C41.6418 39.9501 41.864 40.0474 42.0907 40.1357C42.3174 40.2285 42.5441 40.3125 42.7708 40.3965C42.9975 40.4804 43.2287 40.56 43.4598 40.6307C43.6909 40.7058 43.9221 40.7765 44.1577 40.8428C44.3933 40.9091 44.6289 40.971 44.8644 41.0284C45.1 41.0859 45.3401 41.1389 45.5756 41.1875C45.8157 41.2361 46.0513 41.2803 46.2913 41.3245C46.5313 41.3643 46.7714 41.3996 47.0114 41.435C47.2514 41.4659 47.4959 41.4968 47.7359 41.5189C47.976 41.541 48.2204 41.5631 48.4649 41.5764C48.7094 41.5896 48.9494 41.6029 49.1939 41.6073C49.4384 41.6117 49.6784 41.6161 49.9229 41.6117C50.1674 41.6073 50.4074 41.6029 50.6519 41.5896C50.8964 41.5764 51.1364 41.5631 51.3809 41.541C51.6253 41.5189 51.8654 41.4968 52.1054 41.4659C52.3454 41.435 52.5899 41.404 52.8299 41.3643C53.07 41.3245 53.31 41.2847 53.55 41.2405C53.7901 41.1963 54.0257 41.1433 54.2657 41.0903C54.5013 41.0372 54.7369 40.9754 54.9725 40.9135C55.208 40.8516 55.4392 40.7809 55.6748 40.7102C55.9059 40.6395 56.1371 40.5644 56.3682 40.4849C56.5993 40.4053 56.826 40.3213 57.0527 40.233L58.3418 39.6894L59.5153 39.1061C60.3065 38.6642 61.0622 38.1737 61.7823 37.6301L62.8357 36.8126L63.3025 36.3839L63.7336 36.0348L64.5159 35.3366L64.7915 35.1024L65.0271 34.8284L65.7294 34.0506C66.614 33.0563 67.3786 31.9825 68.0364 30.8247C68.5476 29.9364 68.9877 29.0128 69.3566 28.0539C69.7255 27.0949 70.0145 26.1139 70.2234 25.1107C70.3612 24.4611 70.4679 23.8027 70.539 23.1398C70.6101 22.4769 70.6501 21.8141 70.659 21.1512C70.6634 20.4839 70.6368 19.8211 70.579 19.1582C70.5079 18.513 70.4145 17.8545 70.2901 17.2005ZM63.4536 35.5796L62.9869 36.0083L62.5201 36.4369L61.5022 37.2545C60.791 37.7715 60.0487 38.2355 59.2752 38.6553L58.0973 39.2342L56.8483 39.738L54.9324 40.3611H54.7369C54.0834 40.4981 53.4256 40.5998 52.7633 40.6705C52.101 40.7412 51.4386 40.7765 50.7719 40.7809C50.1051 40.7854 49.4428 40.7544 48.7761 40.6926C48.1093 40.6307 47.4559 40.5335 46.8025 40.4053C45.3045 40.1004 43.8554 39.6364 42.4641 39.0044C40.9928 38.3416 39.6282 37.5152 38.3613 36.5165C37.0189 35.4471 35.8366 34.2318 34.8053 32.8619C34.2719 32.1548 33.7918 31.4168 33.3607 30.6479C33.1251 30.259 32.9295 29.8701 32.7339 29.4415C32.5383 29.0128 32.3428 28.6239 32.2272 28.1997C32.1472 27.9964 32.0716 27.7887 32.0005 27.581C31.9294 27.3733 31.8583 27.1656 31.796 26.9579C31.7294 26.7502 31.6716 26.5381 31.6138 26.326C31.556 26.1139 31.5027 25.9018 31.4493 25.6896C31.396 25.4775 31.3515 25.261 31.3071 25.0489C31.2626 24.8323 31.2226 24.6202 31.1871 24.4037C31.1515 24.1871 31.1159 23.9706 31.0893 23.7541C31.0582 23.5375 31.0359 23.321 31.0137 23.1C30.9915 22.8791 30.9737 22.6625 30.9604 22.446C30.947 22.2295 30.9337 22.0085 30.9292 21.792C30.9204 21.5754 30.9204 21.3545 30.9204 21.1335C30.9204 20.9126 30.9248 20.696 30.9337 20.4751C30.9426 20.2585 30.9515 20.0376 30.9693 19.8211C30.987 19.6045 31.0048 19.3836 31.0226 19.167C31.0448 18.9505 31.0715 18.7339 31.0982 18.513C31.1248 18.292 31.1604 18.0799 31.1959 17.8634C31.2315 17.6468 31.2715 17.4347 31.316 17.2182C31.3604 17.0017 31.4093 16.7895 31.4582 16.5774C31.5115 16.3653 31.5649 16.1532 31.6227 15.9411C31.6805 15.7289 31.7427 15.5212 31.8094 15.3091C31.876 15.1014 31.9427 14.8937 32.0138 14.686C32.085 14.4783 32.1605 14.2751 32.2405 14.0718C32.3205 13.8685 32.4006 13.6652 32.4895 13.4619C32.5739 13.2587 32.6628 13.0598 32.7562 12.8609C32.8495 12.6621 32.9428 12.4676 33.0451 12.2688C33.1429 12.0743 33.2451 11.8799 33.3518 11.6899C33.4585 11.4998 33.5652 11.3098 33.6807 11.1198C33.7918 10.9298 33.9074 10.7442 34.0274 10.563C34.1475 10.3774 34.2675 10.1962 34.3919 10.015C34.5164 9.83384 34.6453 9.65708 34.7742 9.48031C34.9031 9.30355 35.0365 9.1312 35.1743 8.95885C35.3121 8.78651 35.4498 8.61858 35.5921 8.45066L35.9032 8.14132L36.0988 7.9071L36.3344 7.67289L36.8011 7.24424L37.739 6.43996C38.0146 6.219 38.2991 6.00246 38.588 5.79476C38.877 5.58707 39.1703 5.3882 39.4682 5.19376C39.766 5.00374 40.0727 4.81814 40.3794 4.64137C40.6905 4.46461 41.0017 4.29668 41.3217 4.14201C41.6418 3.98293 41.9618 3.83267 42.2908 3.69126C42.6152 3.54985 42.9486 3.41728 43.282 3.29354C43.6154 3.16981 43.9532 3.05491 44.291 2.94885C44.6333 2.84279 44.9756 2.74557 45.3178 2.66161C45.6645 2.57323 46.0113 2.4981 46.3624 2.4274C46.7136 2.36111 47.0647 2.29924 47.4159 2.25063C47.767 2.20202 48.1226 2.16225 48.4783 2.13131C48.8339 2.10038 49.1895 2.07829 49.5451 2.06945C49.9007 2.05619 50.2563 2.05619 50.6119 2.06503C50.9675 2.07387 51.3231 2.09154 51.6787 2.11806C52.0343 2.14457 52.3899 2.17993 52.741 2.22854C53.0922 2.27273 53.4478 2.33017 53.7945 2.39646C54.7991 2.57765 55.7859 2.83837 56.7505 3.17423C57.715 3.5145 58.6441 3.92548 59.542 4.416C60.7066 5.05235 61.7867 5.8036 62.7868 6.66975L63.5692 7.36797L63.8447 7.60218L64.0803 7.87617L64.7827 8.65394C65.0582 8.96769 65.3249 9.29029 65.5828 9.62614C65.8406 9.95758 66.085 10.2978 66.3162 10.647C66.5518 10.9961 66.7696 11.3496 66.9829 11.712C67.1919 12.0743 67.3919 12.4411 67.5786 12.8167C67.7653 13.1924 67.9386 13.5724 68.0986 13.9569C68.2587 14.3413 68.4098 14.7346 68.5432 15.1324C68.6809 15.5301 68.801 15.9278 68.9121 16.3299C69.0232 16.7321 69.1166 17.1386 69.201 17.5496C69.3299 18.1948 69.4233 18.8488 69.4899 19.5029C69.5566 20.1569 69.5833 20.8154 69.5788 21.4738C69.5744 22.1322 69.5388 22.7907 69.4677 23.4447C69.3966 24.0988 69.2944 24.7484 69.161 25.3936C68.8543 26.8695 68.3831 28.2969 67.7564 29.6668C67.0674 31.134 66.2051 32.4951 65.1783 33.7457L64.3559 34.6781L63.4536 35.5796ZM45.9046 40.6307C44.9711 40.4362 44.0554 40.1799 43.1575 39.8529C42.2596 39.5259 41.3929 39.137 40.5528 38.6863C39.7082 38.2267 38.8992 37.7096 38.1302 37.1307C37.3745 36.5563 36.6545 35.9332 35.9788 35.2659C35.8143 35.1024 35.6543 34.93 35.4943 34.7621C35.3343 34.5897 35.1787 34.4174 35.0276 34.2406C34.8764 34.0639 34.7253 33.8827 34.5831 33.7015C34.4364 33.5203 34.2941 33.3347 34.1563 33.1491C34.0185 32.9635 33.8808 32.7735 33.7518 32.579C33.6185 32.389 33.4896 32.1946 33.3651 31.9957C33.2407 31.8013 33.1206 31.6024 33.0006 31.3991C32.8851 31.2003 32.7695 30.997 32.6584 30.7893C32.5472 30.586 32.4406 30.3783 32.3383 30.1706C32.2361 29.9629 32.1383 29.7508 32.0405 29.5387C31.9472 29.3266 31.8538 29.1145 31.7649 28.8979C31.676 28.6814 31.5916 28.4648 31.516 28.2483C31.4404 28.0318 31.3604 27.8108 31.2893 27.5899C31.2182 27.3689 31.1515 27.148 31.0848 26.9226C31.0226 26.6972 30.9604 26.4718 30.907 26.2465C30.8537 26.0211 30.8003 25.7957 30.7514 25.5659C30.7025 25.3361 30.6625 25.1107 30.6225 24.8809C30.5825 24.6511 30.547 24.4214 30.5159 24.1916C30.4847 23.9618 30.4581 23.732 30.4358 23.4978C30.4136 23.268 30.3958 23.0338 30.3825 22.804C30.3692 22.5697 30.3603 22.3399 30.3514 22.1057C30.3469 21.8715 30.3425 21.6417 30.3469 21.4075C30.3514 21.1733 30.3558 20.9435 30.3692 20.7093C30.3825 20.4751 30.3958 20.2453 30.4136 20.0155C30.4314 19.7857 30.4581 19.5515 30.4847 19.3217C30.5114 19.0919 30.547 18.8621 30.5825 18.6323C30.6181 18.4025 30.6581 18.1727 30.7025 17.9473C30.747 17.7175 30.7959 17.4922 30.8492 17.2668C30.9026 17.0414 30.9604 16.816 31.0181 16.5907C31.0804 16.3653 31.1426 16.1443 31.2137 15.919C31.2848 15.6936 31.356 15.4771 31.4315 15.2561C31.5071 15.0351 31.5916 14.8186 31.676 14.6021C31.8316 14.1734 32.0272 13.7845 32.1827 13.3957L32.4183 12.8919C31.8094 14.2662 31.3693 15.6892 31.0893 17.1652C30.9959 17.6247 30.9204 18.0888 30.8581 18.5528C30.7959 19.0168 30.7559 19.4852 30.7292 19.9536C30.7025 20.4221 30.6937 20.8905 30.6981 21.3589C30.7025 21.8273 30.7292 22.2958 30.7692 22.7642C30.8092 23.2326 30.867 23.6966 30.9381 24.1606C31.0093 24.6246 31.0982 25.0842 31.2048 25.5438C31.3115 26.0034 31.4315 26.4541 31.5693 26.9049C31.7071 27.3557 31.8583 27.7976 32.0316 28.2351C32.1872 28.6637 32.3828 29.0879 32.5784 29.4768C32.7739 29.8657 32.9695 30.2944 33.2051 30.6832C33.6363 31.4654 34.1163 32.2167 34.6497 32.937C35.1654 33.6264 35.7254 34.2804 36.3255 34.8991C36.9256 35.5178 37.5657 36.0922 38.2413 36.6314C39.5304 37.6434 40.9261 38.4874 42.4241 39.1591C42.8597 39.3536 43.3042 39.5347 43.7532 39.6983C44.2021 39.8618 44.6555 40.0076 45.1178 40.1402C45.5756 40.2727 46.0424 40.3876 46.5091 40.4849C46.9758 40.5821 47.447 40.6616 47.9226 40.7279C48.3982 40.7898 48.8739 40.8384 49.3495 40.8693C49.8251 40.9003 50.3052 40.9135 50.7852 40.9091C51.2653 40.9047 51.7409 40.8826 52.2165 40.8472C52.6921 40.8075 53.1678 40.7544 53.6389 40.6793C53.0033 40.803 52.3588 40.8958 51.7142 40.9577C51.0697 41.0196 50.4207 41.0461 49.7718 41.0417C49.1228 41.0372 48.4738 41.0019 47.8293 40.9356C47.1847 40.8605 46.5402 40.7633 45.9046 40.6307ZM70.0945 25.1284C69.89 26.1316 69.6055 27.1126 69.2455 28.0671C68.8854 29.0261 68.4498 29.9497 67.9431 30.8379C67.303 31.9913 66.5473 33.0652 65.6761 34.0639L64.9738 34.8416L64.7382 35.1156L64.4626 35.3498L63.7203 36.0083H63.8003L64.6982 35.0759L65.5205 34.1036C66.5429 32.8088 67.3874 31.4124 68.0586 29.9055C68.272 29.4282 68.4631 28.9421 68.6365 28.4472C68.8099 27.9522 68.9654 27.4529 69.0988 26.9491C69.2321 26.4453 69.3477 25.9327 69.4411 25.4201C69.5344 24.9075 69.61 24.386 69.6633 23.869C69.7166 23.3519 69.7478 22.8261 69.7611 22.3046C69.7744 21.7831 69.7655 21.2573 69.7344 20.7358C69.7033 20.2144 69.6544 19.6929 69.5833 19.1759C69.5122 18.6588 69.4233 18.1418 69.3121 17.6336C69.081 16.5421 68.7521 15.4815 68.3342 14.4474C67.992 13.5768 67.5875 12.7328 67.1207 11.9197C66.4673 10.7663 65.6983 9.68801 64.8138 8.69371L64.1114 7.91594L63.8759 7.64196L63.6003 7.40774L62.8179 6.70952C61.8356 5.78151 60.7688 4.96839 59.6131 4.26133C58.7952 3.78407 57.9506 3.36867 57.075 3.01956C56.0348 2.5909 54.968 2.25505 53.8701 2.00758C52.2343 1.64963 50.5808 1.49496 48.905 1.53915C49.6562 1.47287 50.4074 1.45077 51.1631 1.46845C51.9187 1.48612 52.6655 1.55241 53.4122 1.65405C54.159 1.76011 54.8969 1.90594 55.6259 2.09154C56.3549 2.28156 57.0705 2.50694 57.7773 2.77651L59.0263 3.28029L60.2398 3.90338C61.0133 4.33204 61.7556 4.81372 62.4668 5.3396L63.4847 6.15713L63.9514 6.58579L64.4182 7.01444L65.3161 7.9071L66.1384 8.83954C67.1519 10.0946 68.0009 11.4557 68.6765 12.9184C69.3077 14.2883 69.7744 15.7157 70.0811 17.1917C70.2145 17.8413 70.3123 18.4953 70.379 19.1538C70.4456 19.8122 70.4767 20.4751 70.4767 21.1335C70.4767 21.7964 70.4456 22.4548 70.379 23.1133C70.3123 23.7717 70.2145 24.4258 70.0811 25.0754L70.0945 25.1284Z" fill="white"/>
<path d="M58.1453 37.94C58.2609 37.5201 58.412 35.3813 58.5676 33.7772L58.3764 32.5531C57.9542 29.9193 54.6871 26.7066 50.8066 24.9919C49.5397 24.4572 47.3883 23.5425 45.6592 22.7382C41.2408 30.0695 37.5515 37.1755 35.5956 41.7183C35.0178 43.0573 34.3644 42.4828 34.6355 41.7934C37.018 36.2165 39.3606 31.519 44.8146 22.3493C44.0857 22.0444 43.4722 21.7395 43.1611 21.5848C42.0098 21.0103 42.2765 19.1013 46.8105 19.0261L47.8862 17.3071C55.2605 5.19871 62.7904 -0.113074 63.8661 0.00182288C64.9418 0.11672 65.5196 0.806103 65.2885 1.95065C65.0973 3.09521 63.2126 10.316 61.368 19.4857C61.8658 19.6006 62.4437 19.7553 63.0215 20.0602C63.8261 20.5198 65.7108 21.0899 61.368 20.5198H61.1768C59.87 27.3959 59.6788 29.3801 59.3721 33.4678C59.3321 33.5827 59.3721 33.6976 59.3321 33.8125C59.7144 36.296 59.6388 36.6407 59.5988 37.1357C59.5588 37.7102 58.8298 38.32 58.5631 38.2802C58.2964 38.2449 58.0297 38.32 58.1453 37.94ZM47.9262 19.0306C52.5357 18.9908 59.8344 19.3355 60.6434 19.3752C62.5637 9.6355 64.5639 2.64446 64.6395 1.95507C64.7151 1.30546 64.7951 0.695626 64.1017 0.616082C63.3682 0.540957 54.0737 9.36594 48.7307 17.7711L47.9262 19.0306ZM51.0777 24.4175C55.8428 26.6712 57.9942 29.0399 58.7987 31.2538C59.0299 28.8101 59.261 26.5563 60.4123 20.4049C56.2651 19.9851 50.6554 20.0249 47.2727 20.1C46.8505 20.7496 46.4637 21.3992 46.0815 22.0488L51.0777 24.4175ZM43.6989 20.9396L45.2369 21.6643L46.157 20.1353C43.4678 20.3298 43.3922 20.8645 43.6989 20.9396Z" fill="white"/>
<path d="M9.44126 60.115L8.35223 57.3619H2.93372L1.84469 60.115H0L4.50727 48.7844H6.76979L11.2771 60.115H9.44126ZM3.5338 55.8108H7.7477L5.64964 50.4548L3.5338 55.8108ZM18.3802 48.3027H20.0738V60.1195H18.3802V58.8909C17.7624 59.7659 16.7533 60.3316 15.4332 60.3316C13.1218 60.3316 11.366 58.5021 11.366 56.0406C11.366 53.5968 13.1218 51.7673 15.4332 51.7673C16.7533 51.7673 17.7624 52.333 18.3802 53.208V48.3027ZM15.7088 58.807C17.2067 58.807 18.4113 57.6403 18.4113 56.0406C18.4113 54.4541 17.2067 53.2875 15.7088 53.2875C14.1441 53.2875 13.0373 54.4365 13.0373 56.0406C13.0373 57.6448 14.1486 58.807 15.7088 58.807ZM25.2345 60.3272C22.9231 60.3272 21.1673 58.4976 21.1673 56.0362C21.1673 53.5924 22.9231 51.7629 25.2345 51.7629C26.5547 51.7629 27.5637 52.3286 28.1815 53.2035V51.975H29.8751V60.115H28.1815V58.8865C27.5637 59.7615 26.5547 60.3272 25.2345 60.3272ZM25.5101 58.807C27.008 58.807 28.2127 57.6403 28.2127 56.0406C28.2127 54.4541 27.008 53.2875 25.5101 53.2875C23.9454 53.2875 22.8386 54.4365 22.8386 56.0406C22.8386 57.6448 23.9499 58.807 25.5101 58.807ZM42.7346 48.7888V56.3323C42.7346 58.776 41.0588 60.3316 38.5696 60.3316C36.3382 60.3316 34.8758 59.0854 34.2579 57.3045L35.9026 56.8184C36.2626 57.985 37.1383 58.776 38.5385 58.776C40.1031 58.776 40.9788 57.7066 40.9788 56.3013V50.3399H35.2314V48.7844H42.7346V48.7888ZM50.2245 51.975H51.918V60.115H50.2245V58.8865C49.6555 59.7129 48.6954 60.3272 47.393 60.3272C45.3083 60.3272 44.1392 58.9528 44.1392 56.7521V51.9794H45.8461V56.4428C45.8461 57.8657 46.5307 58.7407 47.8642 58.7407C49.2821 58.7407 50.2245 57.658 50.2245 56.0229V51.975ZM58.0433 51.7629C60.1414 51.7629 61.2971 53.1373 61.2971 55.338V60.1106H59.6035V55.6473C59.6035 54.2244 58.919 53.3494 57.5855 53.3494C56.1542 53.3494 55.2251 54.4321 55.2251 56.0671V60.115H53.5182V51.975H55.2251V53.1903C55.7941 52.3816 56.7409 51.7629 58.0433 51.7629ZM69.2759 51.975H70.9828V59.8234C70.9828 62.0904 69.3204 63.7255 66.8311 63.7255C64.862 63.7255 63.6085 62.8195 62.9239 61.6043L64.4219 61.0519C64.9109 61.8606 65.6932 62.2981 66.8622 62.2981C68.4269 62.2981 69.2537 61.2287 69.2715 59.8366V58.6391C68.6358 59.4964 67.6446 60.0134 66.3911 60.0134C64.013 60.0134 62.3061 58.2148 62.3061 55.8859C62.3061 53.4731 64.013 51.7585 66.3911 51.7585C67.6446 51.7585 68.6358 52.2755 69.2715 53.1196L69.2759 51.975ZM66.6533 58.4976C68.1691 58.4976 69.3248 57.3973 69.3248 55.8904C69.3248 54.3834 68.1691 53.3008 66.6533 53.3008C65.0753 53.3008 63.9819 54.3834 63.9819 55.8904C63.9863 57.3973 65.0753 58.4976 66.6533 58.4976ZM77.2192 51.7629C79.5306 51.7629 81.3042 53.5924 81.3042 56.0362C81.3042 58.4976 79.5306 60.3272 77.2192 60.3272C75.9168 60.3272 74.9078 59.7615 74.2899 58.8865V60.115H72.583V48.3027H74.2899V53.208C74.9078 52.333 75.9168 51.7629 77.2192 51.7629ZM76.9436 58.807C78.5082 58.807 79.6151 57.6403 79.6151 56.0406C79.6151 54.4409 78.5082 53.2875 76.9436 53.2875C75.4456 53.2875 74.241 54.4541 74.241 56.0406C74.241 57.6403 75.4456 58.807 76.9436 58.807ZM82.3843 60.115V48.3027H84.0912V60.1195H82.3843V60.115ZM91.6967 51.975H93.3902V60.115H91.6967V58.8865C91.1277 59.7129 90.1676 60.3272 88.8652 60.3272C86.7805 60.3272 85.6114 58.9528 85.6114 56.7521V51.9794H87.3183V56.4428C87.3183 57.8657 88.0028 58.7407 89.3364 58.7407C90.7543 58.7407 91.6967 57.658 91.6967 56.0229V51.975ZM99.5777 58.4667L100 59.8587C99.3821 60.1195 98.8443 60.2476 98.1953 60.2476C96.4395 60.2476 95.6394 59.1473 95.6394 57.4812V53.4819H94.1414V51.975H95.6394V49.2573H97.333V51.975H99.9378V53.4819H97.333V57.4812C97.333 58.2723 97.7241 58.7274 98.5065 58.7274C98.911 58.723 99.2043 58.6435 99.5777 58.4667Z" fill="white"/>
<path d="M11.2916 73.9378L9.99805 69.3817H10.6692L11.7272 73.0849L12.8473 69.3817H13.4118L14.532 73.0849L15.5899 69.3817H16.2567L14.9632 73.9378H14.1897L13.1274 70.5484L12.065 73.9378H11.2916ZM20.9017 73.9378L20.5194 72.8728H18.4703L18.088 73.9378H17.4168L19.1059 69.3817H19.8838L21.5729 73.9378H20.9017ZM18.6703 72.316H20.315L19.4926 70.0181L18.6703 72.316ZM25.8579 73.9378L24.2533 71.8608H23.8577V73.9378H23.2131V69.3817H23.8577V71.2864H24.2444L25.8046 69.3817H26.5958L24.8 71.5515L26.6803 73.9334L25.8579 73.9378ZM30.8008 69.9606H28.9695V71.3792H30.5875V71.9536H28.9695V73.3589H30.8008V73.9378H28.3116V69.3817H30.8008V69.9606ZM36.7394 73.9997C35.7881 73.9997 35.0547 73.4429 35.0547 72.4132V69.3817H35.6992V72.3204C35.6992 73.0717 36.1526 73.4164 36.7394 73.4164C37.3261 73.4164 37.7884 73.0673 37.7884 72.3204V69.3817H38.4329V72.4132C38.4329 73.4429 37.6906 73.9997 36.7394 73.9997ZM42.2601 69.3861C43.1002 69.3861 43.6381 70.0181 43.6381 70.7958C43.6381 71.5869 43.0958 72.1923 42.2601 72.1923H41.14V73.9378H40.4954V69.3817L42.2601 69.3861ZM42.1668 71.6399C42.7046 71.6399 43.0069 71.2952 43.0069 70.787C43.0069 70.2965 42.7046 69.9385 42.1668 69.9385H41.1444V71.6443H42.1668V71.6399ZM50.9813 69.3861L49.4744 71.768V73.9378H48.8254V71.7725L47.3141 69.3861H48.0476L49.1499 71.1936L50.2523 69.3861H50.9813ZM54.5462 73.9997C53.2483 73.9997 52.257 73.1115 52.257 71.6576C52.257 70.2081 53.2483 69.3243 54.5462 69.3243C55.8397 69.3243 56.831 70.2081 56.831 71.6576C56.831 73.1115 55.8353 73.9997 54.5462 73.9997ZM54.5462 73.3987C55.4619 73.3987 56.1864 72.7668 56.1864 71.6576C56.1864 70.5572 55.4619 69.9297 54.5462 69.9297C53.6261 69.9297 52.8971 70.5616 52.8971 71.6576C52.8971 72.7668 53.6261 73.3987 54.5462 73.3987ZM60.2625 73.9997C59.3113 73.9997 58.5779 73.4429 58.5779 72.4132V69.3817H59.2224V72.3204C59.2224 73.0717 59.6758 73.4164 60.2625 73.4164C60.8493 73.4164 61.3115 73.0673 61.3115 72.3204V69.3817H61.9561V72.4132C61.9561 73.4429 61.2182 73.9997 60.2625 73.9997ZM66.4945 73.9378L65.3076 71.8874H64.6676V73.9378H64.023V69.3817H65.5655C66.5256 69.3817 66.9612 69.965 66.9612 70.6809C66.9612 71.3173 66.5834 71.7548 65.9566 71.8608L67.2501 73.9334L66.4945 73.9378ZM64.6676 69.9385V71.4013H65.4766C66.0722 71.4013 66.3433 71.1052 66.3433 70.6721C66.3433 70.2479 66.0766 69.9385 65.4766 69.9385H64.6676ZM72.8775 73.9997C71.9219 73.9997 71.224 73.5445 71.0684 72.7712L71.7263 72.6165C71.8285 73.1468 72.2952 73.4517 72.9042 73.4517C73.3932 73.4517 73.8643 73.2529 73.8554 72.7049C73.851 72.1658 73.2598 72.0155 72.6331 71.8432C71.9219 71.6487 71.2151 71.4278 71.2151 70.5881C71.2151 69.7397 71.9174 69.3154 72.7486 69.3154C73.5532 69.3154 74.2822 69.6557 74.4511 70.4379L73.8243 70.597C73.7088 70.0932 73.2865 69.8678 72.7753 69.8678C72.3175 69.8678 71.8596 70.0667 71.8596 70.5881C71.8596 71.0566 72.3708 71.198 72.9531 71.3526C73.6821 71.5471 74.5178 71.7725 74.5178 72.6872C74.5133 73.6108 73.7399 73.9997 72.8775 73.9997ZM78.3138 73.9997C77.0159 73.9997 76.0246 73.1115 76.0246 71.6576C76.0246 70.2081 77.0159 69.3243 78.3138 69.3243C79.6073 69.3243 80.5986 70.2081 80.5986 71.6576C80.5986 73.1115 79.6073 73.9997 78.3138 73.9997ZM78.3138 73.3987C79.2295 73.3987 79.954 72.7668 79.954 71.6576C79.954 70.5572 79.2295 69.9297 78.3138 69.9297C77.3937 69.9297 76.6647 70.5616 76.6647 71.6576C76.6647 72.7668 77.3937 73.3987 78.3138 73.3987ZM84.0346 73.9997C83.0833 73.9997 82.3499 73.4429 82.3499 72.4132V69.3817H82.9944V72.3204C82.9944 73.0717 83.4478 73.4164 84.0346 73.4164C84.6213 73.4164 85.0836 73.0673 85.0836 72.3204V69.3817H85.7281V72.4132C85.7281 73.4429 84.9903 73.9997 84.0346 73.9997ZM88.4352 73.3589H89.9998V73.9378H87.7906V69.3817H88.4352V73.3589Z" fill="white"/>
</svg>
