<svg width="1141" height="549" viewBox="0 0 1141 549" fill="none" xmlns="http://www.w3.org/2000/svg">
<path fill-rule="evenodd" clip-rule="evenodd" d="M766.531 2.97955C740.148 6.26455 704.646 18.4285 653.193 48.6041C604.062 77.4178 542.737 77.0983 483.793 67.8595C454.304 63.2375 425.363 56.3743 398.785 49.7737C394.501 48.7099 390.28 47.6531 386.128 46.6137L386.12 46.6116L386.118 46.6113C364.494 41.1979 344.756 36.2566 327.918 33.2455C261.392 21.3489 197.571 60.662 141.382 109.171C116.297 130.827 92.7952 154.26 71.3012 175.691L71.2999 175.692C68.7433 178.241 66.215 180.762 63.7159 183.248C40.2366 206.605 19.2839 226.948 1.55754 238.83C1.0987 239.138 0.477321 239.016 0.169651 238.557C-0.13802 238.098 -0.0154743 237.477 0.443363 237.169C17.9771 225.416 38.7863 205.226 62.3048 181.83C64.7745 179.373 67.2735 176.882 69.8012 174.362L69.8804 174.283L69.8889 174.274C91.3773 152.849 114.932 129.364 140.074 107.658C196.292 59.1234 260.758 19.2038 328.27 31.2768C345.182 34.3011 365.002 39.263 386.625 44.6762L386.628 44.6771C390.777 45.7159 394.993 46.7712 399.267 47.8327C425.837 54.4314 454.707 61.2761 484.103 65.8837C542.929 75.104 603.668 75.3303 652.181 46.8791C703.757 16.6315 739.526 4.32652 766.283 0.994887C793.083 -2.34201 810.763 3.33515 826.075 8.84882C833.587 11.5536 842.728 16.0348 852.511 21.8833C937.57 -14.715 1030.01 -5.97774 1088.5 52.4918C1150.75 114.725 1156.64 215.417 1111.48 304.731C1112.06 305.851 1112.66 307.012 1113.25 308.213C1119.14 320.034 1125.79 335.765 1130.43 353.4C1139.7 388.642 1141.02 431.697 1112.01 466.249C1080.88 503.334 1035.56 534.275 971.63 544.982C907.72 555.685 825.295 546.153 719.952 502.45C719.009 502.059 718.057 501.664 717.096 501.265C685.292 488.055 643.715 470.787 591.203 465.203C537.124 459.452 471.399 466.09 392.83 502.434C335.151 529.115 261.579 521.755 190.282 500.677C118.949 479.588 49.6898 444.706 0.497251 416.081C0.0198 415.803 -0.141961 415.191 0.135948 414.714C0.413857 414.237 1.0262 414.075 1.50365 414.353C50.6218 442.935 119.727 477.733 190.85 498.759C262.01 519.797 334.987 526.987 391.99 500.619C470.885 464.124 536.973 457.424 591.415 463.214C644.219 468.83 686.025 486.194 717.825 499.402C718.799 499.806 719.763 500.207 720.718 500.603C825.827 544.208 907.864 553.633 971.3 543.009C1034.72 532.388 1079.63 501.715 1110.48 464.963C1138.88 431.136 1137.69 388.879 1128.49 353.909C1123.9 336.437 1117.31 320.836 1111.46 309.105C1111.09 308.362 1110.73 307.635 1110.36 306.925C1096.12 334.516 1076.99 360.978 1053.13 384.832C951.568 486.368 802.732 502.198 720.698 420.187C638.664 338.177 654.498 189.383 756.063 87.8472C784.575 59.3436 816.812 37.5942 850.251 22.8674C841.037 17.4381 832.463 13.2748 825.397 10.7305C810.201 5.25829 792.871 -0.300181 766.531 2.97955ZM852.349 24.1194C818.702 38.7409 786.213 60.5348 757.478 89.2614C656.397 190.314 641.127 337.811 722.113 418.773C803.098 499.735 950.637 484.47 1051.72 383.418C1075.82 359.326 1095.04 332.595 1109.24 304.755C1104.35 295.433 1100.33 289.294 1098.97 287.631C1098.62 287.203 1098.69 286.573 1099.12 286.224C1099.54 285.876 1100.17 285.94 1100.52 286.369C1101.93 288.098 1105.73 293.889 1110.35 302.565C1154.51 214.177 1148.26 115.061 1087.08 53.9061C1029.64 -3.52638 938.695 -12.5361 854.606 23.1504C866.794 30.6107 879.854 40.1121 891.922 50.8842C914.429 70.9733 933.704 95.673 937.258 120.005C937.338 120.551 936.959 121.059 936.412 121.139C935.866 121.219 935.358 120.84 935.278 120.294C931.83 96.6869 913.012 72.3902 890.59 52.3761C878.193 41.3106 864.76 31.6127 852.349 24.1194Z" fill="#121B28" fill-opacity="0.1"/>
</svg>
