<svg width="726" height="514" viewBox="0 0 726 514" fill="none" xmlns="http://www.w3.org/2000/svg">
<path fill-rule="evenodd" clip-rule="evenodd" d="M724.441 113.902C714.885 107.466 703.609 96.4647 691.02 83.8828C689.692 82.5551 688.348 81.2093 686.99 79.8487L686.95 79.8089C675.416 68.2552 662.817 55.6352 649.371 43.9729C619.228 17.8285 585.134 -3.22138 549.669 3.15025C543.089 4.33248 535.775 5.82358 527.904 7.42829C510.06 11.0664 489.351 15.2886 467.829 17.8194C436.792 21.469 403.864 21.6345 374.995 11.4541C353.294 3.8016 340.218 6.43506 331.254 12.6799C326.733 15.8291 323.19 19.9414 320.093 24.2809C318.545 26.4502 317.115 28.6661 315.728 30.8422C315.602 31.04 315.477 31.2375 315.351 31.4347L315.157 31.7395C313.975 33.5992 312.814 35.4233 311.645 37.1292C310.58 38.6821 309.499 40.3552 308.401 42.1326C350.974 46.4325 390.187 63.371 420.362 93.552C502.407 175.614 486.571 324.502 384.991 426.103C283.411 527.703 134.554 543.542 52.5087 461.48C-29.5364 379.418 -13.7005 230.53 87.8792 128.93C151.452 65.344 233.542 35.3489 306.184 41.9204C307.475 39.8026 308.745 37.8195 309.995 35.9971C311.143 34.3229 312.282 32.5323 313.465 30.671L313.688 30.3214C313.805 30.1371 313.923 29.9522 314.041 29.7667C315.429 27.5879 316.883 25.3337 318.465 23.1181C321.627 18.6876 325.325 14.3711 330.11 11.0377C339.757 4.31753 353.554 1.77118 375.66 9.56666C404.103 19.5968 436.671 19.4681 467.595 15.8318C489.033 13.3109 509.584 9.1204 527.395 5.48867C535.295 3.87787 542.656 2.377 549.316 1.18051C585.771 -5.36907 620.511 16.2927 650.682 42.461C664.186 54.1736 676.837 66.8458 688.365 78.3942L688.416 78.4455C689.771 79.8027 691.111 81.1444 692.434 82.4672C705.062 95.0882 716.195 105.936 725.558 112.242C726.016 112.551 726.138 113.172 725.829 113.631C725.521 114.089 724.899 114.211 724.441 113.902ZM305.03 43.8387C233.305 37.6673 152.281 67.3448 89.294 130.345C-11.8015 231.461 -27.073 379.052 53.9236 460.065C134.92 541.079 282.481 525.804 383.576 424.688C484.672 323.571 499.943 175.98 418.947 94.9672C388.934 64.9479 349.781 48.1495 307.239 44.0405C302.991 51.1174 298.491 59.6436 293.697 68.7392L293.564 68.9924C287.129 81.2006 280.179 94.3867 272.651 106.299C272.356 106.766 271.738 106.905 271.271 106.61C270.804 106.315 270.665 105.697 270.96 105.23C278.445 93.3841 285.365 80.2566 291.811 68.0258L291.812 68.0247L291.927 67.8059C296.521 59.0906 300.882 50.8222 305.03 43.8387Z" fill="#121B28" fill-opacity="0.1"/>
</svg>
