<svg width="584" height="536" viewBox="0 0 584 536" fill="none" xmlns="http://www.w3.org/2000/svg">
<path d="M351.088 7.55743C366.693 1.35508 379.083 0.755179 389.009 3.74263C398.933 6.72997 406.532 13.3462 412.476 21.8418C423.947 38.237 429.098 61.3876 432.825 78.1373L432.835 78.1832C432.981 78.8373 433.124 79.4816 433.266 80.1153C433.386 80.6546 433.921 80.9942 434.46 80.8738C435 80.7533 435.339 80.2185 435.219 79.6792C435.066 78.9961 434.911 78.2996 434.754 77.5907C431.048 60.9256 425.821 37.426 414.116 20.6946C407.993 11.9432 400.056 4.9781 389.585 1.82639C379.115 -1.3252 366.249 -0.621893 350.349 5.69775C294.027 28.0823 219.71 32.6487 176.708 24.9042C140.246 18.3376 105.501 40.0556 75.3268 66.2905C61.8212 78.033 49.1691 90.7376 37.639 102.315L37.6378 102.317C36.2656 103.695 34.9092 105.057 33.5692 106.399C20.9393 119.052 9.80542 129.928 0.440819 136.25C-0.0171763 136.559 -0.137806 137.181 0.171385 137.639C0.480576 138.097 1.1025 138.218 1.5605 137.909C11.1177 131.457 22.3948 120.427 34.9855 107.813C36.3271 106.469 37.684 105.106 39.056 103.729C50.5918 92.1451 63.192 79.4929 76.6398 67.8007C106.787 41.5889 140.885 20.4859 176.353 26.8736C219.71 34.6821 294.408 30.0845 351.088 7.55743Z" fill="#121B28" fill-opacity="0.1"/>
<path fill-rule="evenodd" clip-rule="evenodd" d="M496.109 150.95C597.702 252.546 613.54 401.426 531.484 483.483C449.429 565.541 300.552 549.703 198.959 448.107C97.366 346.512 81.5281 197.632 163.584 115.575C245.64 33.517 394.516 49.3553 496.109 150.95ZM494.694 152.366C595.803 253.476 611.077 401.059 530.069 482.068C449.062 563.077 301.483 547.803 200.374 446.692C99.2653 345.582 83.9918 197.999 164.999 116.99C246.006 35.9808 393.586 51.2546 494.694 152.366Z" fill="#121B28" fill-opacity="0.1"/>
</svg>
