<svg width="100" height="125" viewBox="0 0 100 125" fill="none" xmlns="http://www.w3.org/2000/svg">
<g clip-path="url(#clip0_1747_5566)">
<path d="M70.2891 42.2008C70.0001 40.6983 69.5423 39.2488 68.92 37.8479C68.8044 37.5916 68.6844 37.3397 68.56 37.0923C68.4355 36.8448 68.3021 36.5973 68.1688 36.3543C68.031 36.1112 67.8932 35.8682 67.7465 35.6295C67.5998 35.3909 67.4487 35.1567 67.2931 34.9269C67.1375 34.6971 66.9775 34.4673 66.8086 34.2419C66.6397 34.0165 66.4708 33.7956 66.2974 33.5791C66.1241 33.3625 65.9418 33.146 65.7551 32.9383C65.5684 32.7262 65.3818 32.5229 65.1862 32.3196C64.9906 32.1163 64.795 31.9175 64.595 31.7274C64.395 31.533 64.186 31.343 63.9771 31.1574C63.7682 30.9718 63.5548 30.7906 63.337 30.6138C63.1192 30.4371 62.897 30.2647 62.6747 30.0968C62.4525 29.9289 62.2213 29.7654 61.9902 29.6107C61.759 29.456 61.5235 29.3013 61.2834 29.1511C61.0434 29.0053 60.8034 28.8594 60.5589 28.7224C60.3144 28.5854 60.0699 28.4529 59.8166 28.3247C59.5676 28.1966 59.3143 28.0773 59.0609 27.9579C58.8075 27.843 58.5497 27.7281 58.2875 27.6221C58.0297 27.516 57.7674 27.4144 57.5007 27.3216C57.2384 27.2288 56.9717 27.136 56.705 27.052C56.4383 26.9681 56.1672 26.8885 55.896 26.8178C55.6249 26.7471 55.3537 26.6764 55.0782 26.6189C54.8026 26.5571 54.5314 26.504 54.2514 26.451C53.9758 26.4024 53.7002 26.3582 53.4202 26.3184C53.1401 26.2787 52.8645 26.2477 52.5845 26.2212C52.3045 26.1947 52.0244 26.1726 51.7444 26.1594C51.4643 26.1461 51.1843 26.1373 50.9043 26.1328C50.6242 26.1284 50.3442 26.1328 50.0642 26.1417C49.7841 26.1505 49.5041 26.1638 49.224 26.1859C48.944 26.208 48.664 26.2345 48.3884 26.2654C48.1128 26.2963 47.8327 26.3361 47.5527 26.3803C47.2771 26.4245 47.0015 26.4731 46.7259 26.5306C45.9703 26.6808 45.228 26.8752 44.499 27.1139C43.441 27.3746 42.4098 27.7281 41.4097 28.1612C41.0941 28.3026 40.7785 28.4485 40.4718 28.6031C40.1606 28.7578 39.8583 28.9213 39.5561 29.0936C39.2538 29.266 38.9605 29.4428 38.6671 29.6328C38.3737 29.8184 38.0892 30.0128 37.8092 30.2161C37.5291 30.4194 37.2536 30.6271 36.9824 30.8436C36.7113 31.0602 36.449 31.2811 36.1867 31.5109C35.9245 31.7407 35.6756 31.9749 35.4266 32.218C35.1777 32.461 34.9377 32.7085 34.7066 32.9648C34.471 33.2211 34.2443 33.4818 34.0265 33.747C33.8042 34.0121 33.5908 34.2861 33.3864 34.5601C33.1819 34.8385 32.9819 35.1213 32.7907 35.4086C32.5996 35.6958 32.4129 35.9875 32.2396 36.2836C32.0618 36.5796 31.8928 36.8801 31.7328 37.1851C31.5728 37.49 31.4172 37.7993 31.275 38.1131C31.1283 38.4268 30.9949 38.745 30.866 39.0632C30.7371 39.3814 30.6171 39.7084 30.506 40.0354C30.3949 40.3624 30.2926 40.6894 30.1948 41.0209C30.1015 41.3523 30.0126 41.6881 29.937 42.024C29.8615 42.3598 29.7903 42.7001 29.7326 43.036C29.6748 43.3762 29.6214 43.7165 29.5814 44.0612C29.5414 44.4015 29.5059 44.7462 29.4836 45.0909C29.4614 45.4356 29.4436 45.7802 29.4392 46.1249C29.4347 46.4696 29.4347 46.8143 29.4481 47.159C29.4614 47.5037 29.4792 47.8484 29.5103 48.1931C29.5414 48.5378 29.577 48.878 29.6259 49.2227C29.6748 49.5674 29.7281 49.9033 29.7948 50.2436C29.8615 50.5838 29.9326 50.9197 30.017 51.2555C30.1015 51.5914 30.1904 51.9228 30.2882 52.2543C30.386 52.5857 30.4971 52.9127 30.6127 53.2353C30.7282 53.5579 30.8527 53.8805 30.9861 54.1987C31.1194 54.5168 31.2616 54.8306 31.4128 55.1444C31.5639 55.4537 31.7195 55.763 31.884 56.0635C32.3596 56.9297 32.893 57.7605 33.4842 58.5515C34.0842 59.3337 34.7377 60.0717 35.44 60.7655C35.6133 60.9378 35.7867 61.1058 35.9645 61.2693C36.1423 61.4328 36.3245 61.5963 36.5068 61.7509C36.689 61.91 36.8802 62.0647 37.0669 62.215C37.258 62.3652 37.4491 62.5154 37.6447 62.6569C37.8403 62.8027 38.0359 62.9397 38.2404 63.0767C38.4404 63.2137 38.6449 63.3462 38.8493 63.4788C39.0538 63.607 39.2627 63.7351 39.4716 63.8589C39.6805 63.9826 39.8939 64.0975 40.1073 64.2124C40.3206 64.3273 40.5384 64.4378 40.7562 64.5438C40.9741 64.6499 41.1963 64.7515 41.4186 64.8532C41.6408 64.9504 41.8631 65.0476 42.0898 65.136C42.3165 65.2288 42.5432 65.3128 42.7698 65.3967C42.9965 65.4807 43.2277 65.5602 43.4588 65.6309C43.69 65.7061 43.9211 65.7768 44.1567 65.843C44.3923 65.9093 44.6279 65.9712 44.8635 66.0286C45.099 66.0861 45.3391 66.1391 45.5747 66.1877C45.8147 66.2363 46.0503 66.2805 46.2903 66.3247C46.5303 66.3645 46.7704 66.3999 47.0104 66.4352C47.2504 66.4661 47.4949 66.4971 47.735 66.5192C47.975 66.5413 48.2195 66.5634 48.4639 66.5766C48.7084 66.5899 48.9485 66.6031 49.1929 66.6076C49.4374 66.612 49.6774 66.6164 49.9219 66.612C50.1664 66.6076 50.4064 66.6031 50.6509 66.5899C50.8954 66.5766 51.1354 66.5634 51.3799 66.5413C51.6244 66.5192 51.8644 66.4971 52.1044 66.4661C52.3445 66.4352 52.5889 66.4043 52.829 66.3645C53.069 66.3247 53.309 66.285 53.5491 66.2408C53.7891 66.1966 54.0247 66.1435 54.2647 66.0905C54.5003 66.0375 54.7359 65.9756 54.9715 65.9138C55.2071 65.8519 55.4382 65.7812 55.6738 65.7105C55.9049 65.6398 56.1361 65.5646 56.3672 65.4851C56.5984 65.4056 56.8251 65.3216 57.0518 65.2332L58.3408 64.6897L59.5143 64.1063C60.3055 63.6644 61.0612 63.1739 61.7813 62.6303L62.8347 61.8128L63.3015 61.3842L63.7326 61.035L64.515 60.3368L64.7906 60.1026L65.0262 59.8286L65.7285 59.0509C66.613 58.0566 67.3776 56.9827 68.0354 55.8249C68.5466 54.9367 68.9867 54.0131 69.3556 53.0541C69.7246 52.0952 70.0135 51.1141 70.2224 50.111C70.3602 49.4614 70.4669 48.8029 70.538 48.1401C70.6091 47.4772 70.6491 46.8143 70.658 46.1514C70.6625 45.4842 70.6358 44.8213 70.578 44.1584C70.5069 43.5132 70.4135 42.8548 70.2891 42.2008ZM63.4526 60.5799L62.9859 61.0085L62.5191 61.4372L61.5012 62.2547C60.79 62.7718 60.0477 63.2358 59.2743 63.6556L58.0963 64.2345L56.8473 64.7383L54.9315 65.3614H54.7359C54.0825 65.4984 53.4246 65.6 52.7623 65.6707C52.1 65.7414 51.4377 65.7768 50.7709 65.7812C50.1042 65.7856 49.4418 65.7547 48.7751 65.6928C48.1083 65.6309 47.4549 65.5337 46.8015 65.4056C45.3035 65.1006 43.8544 64.6366 42.4631 64.0047C40.9918 63.3418 39.6272 62.5154 38.3604 61.5167C37.018 60.4473 35.8356 59.232 34.8043 57.8621C34.2709 57.1551 33.7909 56.4171 33.3597 55.6481C33.1241 55.2593 32.9285 54.8704 32.733 54.4417C32.5374 54.0131 32.3418 53.6242 32.2262 53.1999C32.1462 52.9967 32.0706 52.789 31.9995 52.5813C31.9284 52.3736 31.8573 52.1659 31.7951 51.9582C31.7284 51.7505 31.6706 51.5384 31.6128 51.3262C31.555 51.1141 31.5017 50.902 31.4483 50.6899C31.395 50.4778 31.3505 50.2612 31.3061 50.0491C31.2616 49.8326 31.2216 49.6205 31.1861 49.4039C31.1505 49.1874 31.115 48.9708 31.0883 48.7543C31.0572 48.5378 31.035 48.3212 31.0127 48.1003C30.9905 47.8793 30.9727 47.6628 30.9594 47.4463C30.946 47.2297 30.9327 47.0088 30.9283 46.7922C30.9194 46.5757 30.9194 46.3547 30.9194 46.1338C30.9194 45.9128 30.9238 45.6963 30.9327 45.4753C30.9416 45.2588 30.9505 45.0378 30.9683 44.8213C30.9861 44.6048 31.0038 44.3838 31.0216 44.1673C31.0438 43.9507 31.0705 43.7342 31.0972 43.5132C31.1239 43.2923 31.1594 43.0802 31.195 42.8636C31.2305 42.6471 31.2705 42.435 31.315 42.2184C31.3594 42.0019 31.4083 41.7898 31.4572 41.5777C31.5106 41.3655 31.5639 41.1534 31.6217 40.9413C31.6795 40.7292 31.7417 40.5215 31.8084 40.3094C31.8751 40.1017 31.9417 39.894 32.0129 39.6863C32.084 39.4786 32.1595 39.2753 32.2396 39.072C32.3196 38.8687 32.3996 38.6655 32.4885 38.4622C32.5729 38.2589 32.6618 38.06 32.7552 37.8612C32.8485 37.6623 32.9419 37.4679 33.0441 37.269C33.1419 37.0746 33.2441 36.8801 33.3508 36.6901C33.4575 36.5001 33.5642 36.3101 33.6797 36.12C33.7909 35.93 33.9064 35.7444 34.0265 35.5632C34.1465 35.3776 34.2665 35.1965 34.391 35.0153C34.5154 34.8341 34.6443 34.6573 34.7732 34.4806C34.9021 34.3038 35.0355 34.1314 35.1733 33.9591C35.3111 33.7868 35.4489 33.6188 35.5911 33.4509L35.9023 33.1416L36.0978 32.9073L36.3334 32.6731L36.8002 32.2445L37.7381 31.4402C38.0137 31.2192 38.2981 31.0027 38.5871 30.795C38.876 30.5873 39.1694 30.3884 39.4672 30.194C39.765 30.004 40.0717 29.8184 40.3784 29.6416C40.6896 29.4649 41.0007 29.2969 41.3208 29.1423C41.6408 28.9832 41.9609 28.8329 42.2898 28.6915C42.6143 28.5501 42.9476 28.4175 43.281 28.2938C43.6144 28.1701 43.9522 28.0552 44.2901 27.9491C44.6323 27.843 44.9746 27.7458 45.3169 27.6619C45.6636 27.5735 46.0103 27.4983 46.3614 27.4276C46.7126 27.3614 47.0638 27.2995 47.4149 27.2509C47.7661 27.2023 48.1217 27.1625 48.4773 27.1316C48.8329 27.1006 49.1885 27.0785 49.5441 27.0697C49.8997 27.0564 50.2553 27.0564 50.6109 27.0653C50.9665 27.0741 51.3221 27.0918 51.6777 27.1183C52.0333 27.1448 52.3889 27.1802 52.7401 27.2288C53.0912 27.273 53.4468 27.3304 53.7935 27.3967C54.7981 27.5779 55.7849 27.8386 56.7495 28.1745C57.7141 28.5147 58.6431 28.9257 59.541 29.4162C60.7056 30.0526 61.7857 30.8038 62.7859 31.67L63.5682 32.3682L63.8438 32.6024L64.0794 32.8764L64.7817 33.6542C65.0573 33.9679 65.324 34.2905 65.5818 34.6264C65.8396 34.9578 66.0841 35.2981 66.3152 35.6472C66.5508 35.9963 66.7686 36.3498 66.982 36.7122C67.1909 37.0746 67.3909 37.4414 67.5776 37.817C67.7643 38.1926 67.9376 38.5727 68.0977 38.9571C68.2577 39.3416 68.4088 39.7349 68.5422 40.1326C68.68 40.5303 68.8 40.9281 68.9111 41.3302C69.0222 41.7323 69.1156 42.1389 69.2 42.5499C69.3289 43.1951 69.4223 43.8491 69.489 44.5031C69.5556 45.1571 69.5823 45.8156 69.5779 46.474C69.5734 47.1325 69.5379 47.7909 69.4667 48.445C69.3956 49.099 69.2934 49.7486 69.16 50.3938C68.8533 51.8698 68.3822 53.2972 67.7554 54.6671C67.0664 56.1342 66.2041 57.4953 65.1773 58.7459L64.3549 59.6784L63.4526 60.5799ZM45.9036 65.6309C44.9701 65.4365 44.0545 65.1802 43.1566 64.8532C42.2587 64.5261 41.3919 64.1373 40.5518 63.6865C39.7072 63.2269 38.8982 62.7099 38.1292 62.131C37.3736 61.5565 36.6535 60.9334 35.9778 60.2661C35.8134 60.1026 35.6533 59.9303 35.4933 59.7623C35.3333 59.59 35.1777 59.4176 35.0266 59.2409C34.8755 59.0641 34.7243 58.8829 34.5821 58.7017C34.4354 58.5206 34.2932 58.335 34.1554 58.1494C34.0176 57.9638 33.8798 57.7737 33.7509 57.5793C33.6175 57.3893 33.4886 57.1948 33.3641 56.996C33.2397 56.8015 33.1197 56.6027 32.9997 56.3994C32.8841 56.2005 32.7685 55.9972 32.6574 55.7895C32.5463 55.5863 32.4396 55.3786 32.3373 55.1709C32.2351 54.9632 32.1373 54.7511 32.0395 54.5389C31.9462 54.3268 31.8528 54.1147 31.7639 53.8982C31.675 53.6816 31.5906 53.4651 31.515 53.2486C31.4394 53.032 31.3594 52.8111 31.2883 52.5901C31.2172 52.3692 31.1505 52.1482 31.0838 51.9228C31.0216 51.6974 30.9594 51.4721 30.906 51.2467C30.8527 51.0213 30.7994 50.7959 30.7505 50.5661C30.7016 50.3364 30.6616 50.111 30.6216 49.8812C30.5816 49.6514 30.546 49.4216 30.5149 49.1918C30.4838 48.962 30.4571 48.7322 30.4349 48.498C30.4126 48.2682 30.3949 48.034 30.3815 47.8042C30.3682 47.57 30.3593 47.3402 30.3504 47.106C30.346 46.8718 30.3415 46.642 30.346 46.4078C30.3504 46.1735 30.3549 45.9438 30.3682 45.7095C30.3815 45.4753 30.3949 45.2455 30.4126 45.0157C30.4304 44.7859 30.4571 44.5517 30.4838 44.3219C30.5104 44.0921 30.546 43.8623 30.5816 43.6326C30.6171 43.4028 30.6571 43.173 30.7016 42.9476C30.746 42.7178 30.7949 42.4924 30.8483 42.267C30.9016 42.0417 30.9594 41.8163 31.0172 41.5909C31.0794 41.3655 31.1416 41.1446 31.2128 40.9192C31.2839 40.6938 31.355 40.4773 31.4306 40.2563C31.5061 40.0354 31.5906 39.8189 31.675 39.6023C31.8306 39.1737 32.0262 38.7848 32.1818 38.3959L32.4174 37.8921C31.8084 39.2665 31.3683 40.6894 31.0883 42.1654C30.9949 42.625 30.9194 43.089 30.8571 43.553C30.7949 44.017 30.7549 44.4854 30.7282 44.9539C30.7016 45.4223 30.6927 45.8907 30.6971 46.3591C30.7016 46.8276 30.7282 47.296 30.7682 47.7644C30.8083 48.2329 30.866 48.6969 30.9372 49.1609C31.0083 49.6249 31.0972 50.0845 31.2039 50.5441C31.3105 51.0036 31.4306 51.4544 31.5684 51.9051C31.7062 52.3559 31.8573 52.7978 32.0306 53.2353C32.1862 53.664 32.3818 54.0882 32.5774 54.4771C32.773 54.866 32.9685 55.2946 33.2041 55.6835C33.6353 56.4657 34.1154 57.2169 34.6488 57.9372C35.1644 58.6266 35.7245 59.2807 36.3245 59.8993C36.9246 60.518 37.5647 61.0925 38.2404 61.6316C39.5294 62.6436 40.9252 63.4877 42.4231 64.1594C42.8588 64.3538 43.3033 64.535 43.7522 64.6985C44.2012 64.862 44.6545 65.0078 45.1168 65.1404C45.5747 65.273 46.0414 65.3879 46.5081 65.4851C46.9749 65.5823 47.446 65.6619 47.9216 65.7281C48.3973 65.79 48.8729 65.8386 49.3485 65.8696C49.8241 65.9005 50.3042 65.9138 50.7843 65.9093C51.2643 65.9049 51.7399 65.8828 52.2156 65.8475C52.6912 65.8077 53.1668 65.7547 53.638 65.6795C53.0023 65.8033 52.3578 65.8961 51.7133 65.9579C51.0687 66.0198 50.4198 66.0463 49.7708 66.0419C49.1218 66.0375 48.4728 66.0021 47.8283 65.9358C47.1838 65.8607 46.5392 65.7635 45.9036 65.6309ZM70.0935 50.1287C69.889 51.1318 69.6045 52.1128 69.2445 53.0674C68.8844 54.0263 68.4488 54.9499 67.9421 55.8382C67.302 56.9916 66.5464 58.0654 65.6751 59.0641L64.9728 59.8419L64.7372 60.1159L64.4616 60.3501L63.7193 61.0085H63.7993L64.6972 60.0761L65.5196 59.1039C66.5419 57.8091 67.3865 56.4126 68.0577 54.9057C68.271 54.4285 68.4622 53.9424 68.6355 53.4474C68.8089 52.9525 68.9645 52.4531 69.0978 51.9493C69.2312 51.4456 69.3467 50.9329 69.4401 50.4203C69.5334 49.9077 69.609 49.3862 69.6623 48.8692C69.7157 48.3522 69.7468 47.8263 69.7601 47.3048C69.7735 46.7834 69.7646 46.2575 69.7334 45.7361C69.7023 45.2146 69.6534 44.6931 69.5823 44.1761C69.5112 43.6591 69.4223 43.142 69.3112 42.6338C69.08 41.5423 68.7511 40.4817 68.3333 39.4476C67.991 38.5771 67.5865 37.733 67.1198 36.9199C66.4663 35.7665 65.6973 34.6883 64.8128 33.694L64.1105 32.9162L63.8749 32.6422L63.5993 32.408L62.817 31.7098C61.8346 30.7818 60.7678 29.9686 59.6121 29.2616C58.7942 28.7843 57.9497 28.3689 57.074 28.0198C56.0338 27.5911 54.967 27.2553 53.8691 27.0078C52.2333 26.6499 50.5798 26.4952 48.904 26.5394C49.6552 26.4731 50.4064 26.451 51.1621 26.4687C51.9177 26.4864 52.6645 26.5527 53.4113 26.6543C54.158 26.7604 54.8959 26.9062 55.6249 27.0918C56.3539 27.2818 57.0695 27.5072 57.7763 27.7768L59.0253 28.2805L60.2388 28.9036C61.0123 29.3323 61.7546 29.814 62.4658 30.3398L63.4837 31.1574L63.9505 31.586L64.4172 32.0147L65.3151 32.9073L66.1374 33.8398C67.1509 35.0948 67.9999 36.4559 68.6755 37.9186C69.3067 39.2886 69.7734 40.7159 70.0802 42.1919C70.2135 42.8415 70.3113 43.4956 70.378 44.154C70.4447 44.8125 70.4758 45.4753 70.4758 46.1338C70.4758 46.7966 70.4447 47.4551 70.378 48.1135C70.3113 48.772 70.2135 49.426 70.0802 50.0756L70.0935 50.1287Z" fill="#121B28"/>
<path d="M58.1458 62.94C58.2614 62.5201 58.4125 60.3813 58.5681 58.7772L58.3769 57.5531C57.9547 54.9193 54.6876 51.7066 50.807 49.9919C49.5402 49.4572 47.3888 48.5425 45.6597 47.7382C41.2413 55.0695 37.5519 62.1755 35.5961 66.7183C35.0183 68.0573 34.3648 67.4828 34.636 66.7934C37.0185 61.2165 39.3611 56.519 44.8151 47.3493C44.0861 47.0444 43.4727 46.7395 43.1616 46.5848C42.0103 46.0103 42.277 44.1013 46.811 44.0261L47.8867 42.3071C55.261 30.1987 62.7909 24.8869 63.8666 25.0018C64.9423 25.1167 65.5201 25.8061 65.289 26.9507C65.0978 28.0952 63.2131 35.316 61.3684 44.4857C61.8663 44.6006 62.4441 44.7553 63.022 45.0602C63.8266 45.5198 65.7112 46.0899 61.3684 45.5198H61.1773C59.8705 52.3959 59.6793 54.3801 59.3726 58.4678C59.3326 58.5827 59.3726 58.6976 59.3326 58.8125C59.7149 61.296 59.6393 61.6407 59.5993 62.1357C59.5593 62.7102 58.8303 63.32 58.5636 63.2802C58.2969 63.2449 58.0302 63.32 58.1458 62.94ZM47.9267 44.0306C52.5362 43.9908 59.8349 44.3355 60.6439 44.3752C62.5642 34.6355 64.5644 27.6445 64.64 26.9551C64.7156 26.3055 64.7956 25.6956 64.1021 25.6161C63.3687 25.541 54.0741 34.3659 48.7312 42.7711L47.9267 44.0306ZM51.0782 49.4175C55.8433 51.6712 57.9947 54.0399 58.7992 56.2538C59.0304 53.8101 59.2615 51.5563 60.4128 45.4049C56.2655 44.9851 50.6559 45.0249 47.2732 45.1C46.851 45.7496 46.4642 46.3992 46.082 47.0488L51.0782 49.4175ZM43.6994 45.9396L45.2374 46.6643L46.1575 45.1353C43.4683 45.3298 43.3927 45.8645 43.6994 45.9396Z" fill="#121B28"/>
<path d="M9.44126 85.1151L8.35223 82.362H2.93372L1.84469 85.1151H0L4.50727 73.7845H6.76979L11.2771 85.1151H9.44126ZM3.5338 80.8109H7.7477L5.64964 75.4549L3.5338 80.8109ZM18.3802 73.3028H20.0738V85.1195H18.3802V83.891C17.7624 84.766 16.7533 85.3316 15.4332 85.3316C13.1218 85.3316 11.366 83.5021 11.366 81.0407C11.366 78.5969 13.1218 76.7674 15.4332 76.7674C16.7533 76.7674 17.7624 77.333 18.3802 78.208V73.3028ZM15.7088 83.807C17.2067 83.807 18.4113 82.6404 18.4113 81.0407C18.4113 79.4542 17.2067 78.2876 15.7088 78.2876C14.1441 78.2876 13.0373 79.4365 13.0373 81.0407C13.0373 82.6448 14.1486 83.807 15.7088 83.807ZM25.2345 85.3272C22.9231 85.3272 21.1673 83.4977 21.1673 81.0363C21.1673 78.5925 22.9231 76.763 25.2345 76.763C26.5547 76.763 27.5637 77.3286 28.1815 78.2036V76.9751H29.8751V85.1151H28.1815V83.8866C27.5637 84.7616 26.5547 85.3272 25.2345 85.3272ZM25.5101 83.807C27.008 83.807 28.2127 82.6404 28.2127 81.0407C28.2127 79.4542 27.008 78.2876 25.5101 78.2876C23.9454 78.2876 22.8386 79.4365 22.8386 81.0407C22.8386 82.6448 23.9499 83.807 25.5101 83.807ZM42.7346 73.7889V81.3323C42.7346 83.7761 41.0588 85.3316 38.5696 85.3316C36.3382 85.3316 34.8758 84.0854 34.2579 82.3045L35.9026 81.8184C36.2626 82.9851 37.1383 83.7761 38.5385 83.7761C40.1031 83.7761 40.9788 82.7067 40.9788 81.3014V75.34H35.2314V73.7845H42.7346V73.7889ZM50.2245 76.9751H51.918V85.1151H50.2245V83.8866C49.6555 84.713 48.6954 85.3272 47.393 85.3272C45.3083 85.3272 44.1392 83.9529 44.1392 81.7522V76.9795H45.8461V81.4428C45.8461 82.8658 46.5307 83.7408 47.8642 83.7408C49.2821 83.7408 50.2245 82.6581 50.2245 81.023V76.9751ZM58.0433 76.763C60.1414 76.763 61.2971 78.1373 61.2971 80.338V85.1107H59.6035V80.6474C59.6035 79.2244 58.919 78.3494 57.5855 78.3494C56.1542 78.3494 55.2251 79.4321 55.2251 81.0672V85.1151H53.5182V76.9751H55.2251V78.1903C55.7941 77.3816 56.7409 76.763 58.0433 76.763ZM69.2759 76.9751H70.9828V84.8234C70.9828 87.0904 69.3204 88.7255 66.8311 88.7255C64.862 88.7255 63.6085 87.8196 62.9239 86.6043L64.4219 86.052C64.9109 86.8607 65.6932 87.2981 66.8623 87.2981C68.4269 87.2981 69.2537 86.2287 69.2715 84.8367V83.6391C68.6358 84.4964 67.6446 85.0135 66.3911 85.0135C64.013 85.0135 62.3061 83.2149 62.3061 80.886C62.3061 78.4732 64.013 76.7585 66.3911 76.7585C67.6446 76.7585 68.6358 77.2756 69.2715 78.1196L69.2759 76.9751ZM66.6533 83.4977C68.1691 83.4977 69.3248 82.3973 69.3248 80.8904C69.3248 79.3835 68.1691 78.3008 66.6533 78.3008C65.0753 78.3008 63.9819 79.3835 63.9819 80.8904C63.9863 82.3973 65.0753 83.4977 66.6533 83.4977ZM77.2192 76.763C79.5306 76.763 81.3042 78.5925 81.3042 81.0363C81.3042 83.4977 79.5306 85.3272 77.2192 85.3272C75.9168 85.3272 74.9078 84.7616 74.2899 83.8866V85.1151H72.583V73.3028H74.2899V78.208C74.9078 77.333 75.9168 76.763 77.2192 76.763ZM76.9436 83.807C78.5082 83.807 79.6151 82.6404 79.6151 81.0407C79.6151 79.441 78.5082 78.2876 76.9436 78.2876C75.4456 78.2876 74.241 79.4542 74.241 81.0407C74.241 82.6404 75.4456 83.807 76.9436 83.807ZM82.3843 85.1151V73.3028H84.0912V85.1195H82.3843V85.1151ZM91.6967 76.9751H93.3902V85.1151H91.6967V83.8866C91.1277 84.713 90.1676 85.3272 88.8652 85.3272C86.7805 85.3272 85.6114 83.9529 85.6114 81.7522V76.9795H87.3183V81.4428C87.3183 82.8658 88.0028 83.7408 89.3364 83.7408C90.7543 83.7408 91.6967 82.6581 91.6967 81.023V76.9751ZM99.5777 83.4668L100 84.8588C99.3821 85.1195 98.8443 85.2477 98.1953 85.2477C96.4395 85.2477 95.6394 84.1473 95.6394 82.4813V78.482H94.1414V76.9751H95.6394V74.2573H97.333V76.9751H99.9378V78.482H97.333V82.4813C97.333 83.2723 97.7242 83.7275 98.5065 83.7275C98.911 83.7231 99.2043 83.6435 99.5777 83.4668Z" fill="#121B28"/>
<path d="M11.2911 98.938L9.99756 94.3819H10.6688L11.7267 98.0851L12.8468 94.3819H13.4113L14.5315 98.0851L15.5894 94.3819H16.2562L14.9627 98.938H14.1892L13.1269 95.5485L12.0645 98.938H11.2911ZM20.9012 98.938L20.519 97.873H18.4698L18.0875 98.938H17.4163L19.1054 94.3819H19.8833L21.5724 98.938H20.9012ZM18.6698 97.3162H20.3145L19.4922 95.0182L18.6698 97.3162ZM25.8574 98.938L24.2528 96.861H23.8572V98.938H23.2127V94.3819H23.8572V96.2865H24.2439L25.8041 94.3819H26.5953L24.7995 96.5517L26.6798 98.9336L25.8574 98.938ZM30.8003 94.9608H28.969V96.3793H30.587V96.9538H28.969V98.3591H30.8003V98.938H28.3111V94.3819H30.8003V94.9608ZM36.7389 98.9999C35.7877 98.9999 35.0542 98.4431 35.0542 97.4134V94.3819H35.6988V97.3206C35.6988 98.0719 36.1522 98.4166 36.7389 98.4166C37.3256 98.4166 37.7879 98.0674 37.7879 97.3206V94.3819H38.4325V97.4134C38.4325 98.4431 37.6901 98.9999 36.7389 98.9999ZM42.2596 94.3863C43.0997 94.3863 43.6376 95.0183 43.6376 95.796C43.6376 96.587 43.0953 97.1925 42.2596 97.1925H41.1395V98.938H40.495V94.3819L42.2596 94.3863ZM42.1663 96.6401C42.7041 96.6401 43.0064 96.2954 43.0064 95.7872C43.0064 95.2967 42.7041 94.9387 42.1663 94.9387H41.1439V96.6445H42.1663V96.6401ZM50.9808 94.3863L49.4739 96.7682V98.938H48.825V96.7726L47.3136 94.3863H48.0471L49.1494 96.1937L50.2518 94.3863H50.9808ZM54.5457 98.9999C53.2478 98.9999 52.2565 98.1116 52.2565 96.6577C52.2565 95.2083 53.2478 94.3244 54.5457 94.3244C55.8392 94.3244 56.8305 95.2083 56.8305 96.6577C56.8305 98.1116 55.8348 98.9999 54.5457 98.9999ZM54.5457 98.3989C55.4614 98.3989 56.1859 97.7669 56.1859 96.6577C56.1859 95.5574 55.4614 94.9299 54.5457 94.9299C53.6256 94.9299 52.8966 95.5618 52.8966 96.6577C52.8966 97.7669 53.6256 98.3989 54.5457 98.3989ZM60.262 98.9999C59.3108 98.9999 58.5774 98.4431 58.5774 97.4134V94.3819H59.2219V97.3206C59.2219 98.0719 59.6753 98.4166 60.262 98.4166C60.8488 98.4166 61.3111 98.0674 61.3111 97.3206V94.3819H61.9556V97.4134C61.9556 98.4431 61.2177 98.9999 60.262 98.9999ZM66.494 98.938L65.3072 96.8875H64.6671V98.938H64.0225V94.3819H65.565C66.5251 94.3819 66.9607 94.9652 66.9607 95.6811C66.9607 96.3175 66.5829 96.755 65.9561 96.861L67.2496 98.9336L66.494 98.938ZM64.6671 94.9387V96.4014H65.4761C66.0717 96.4014 66.3428 96.1054 66.3428 95.6723C66.3428 95.248 66.0761 94.9387 65.4761 94.9387H64.6671ZM72.877 98.9999C71.9214 98.9999 71.2235 98.5447 71.0679 97.7714L71.7258 97.6167C71.828 98.147 72.2947 98.4519 72.9037 98.4519C73.3927 98.4519 73.8638 98.253 73.855 97.7051C73.8505 97.1659 73.2593 97.0157 72.6326 96.8433C71.9214 96.6489 71.2146 96.4279 71.2146 95.5883C71.2146 94.7398 71.9169 94.3156 72.7481 94.3156C73.5527 94.3156 74.2817 94.6559 74.4506 95.4381L73.8238 95.5972C73.7083 95.0934 73.286 94.868 72.7748 94.868C72.317 94.868 71.8591 95.0669 71.8591 95.5883C71.8591 96.0567 72.3703 96.1982 72.9526 96.3528C73.6816 96.5473 74.5173 96.7726 74.5173 97.6874C74.5128 98.611 73.7394 98.9999 72.877 98.9999ZM78.3133 98.9999C77.0154 98.9999 76.0241 98.1116 76.0241 96.6577C76.0241 95.2083 77.0154 94.3244 78.3133 94.3244C79.6068 94.3244 80.5981 95.2083 80.5981 96.6577C80.5981 98.1116 79.6068 98.9999 78.3133 98.9999ZM78.3133 98.3989C79.229 98.3989 79.9536 97.7669 79.9536 96.6577C79.9536 95.5574 79.229 94.9299 78.3133 94.9299C77.3932 94.9299 76.6642 95.5618 76.6642 96.6577C76.6642 97.7669 77.3932 98.3989 78.3133 98.3989ZM84.0341 98.9999C83.0829 98.9999 82.3494 98.4431 82.3494 97.4134V94.3819H82.9939V97.3206C82.9939 98.0719 83.4473 98.4166 84.0341 98.4166C84.6208 98.4166 85.0831 98.0674 85.0831 97.3206V94.3819H85.7276V97.4134C85.7276 98.4431 84.9898 98.9999 84.0341 98.9999ZM88.4347 98.3591H89.9993V98.938H87.7901V94.3819H88.4347V98.3591Z" fill="#121B28"/>
</g>
<defs>
<clipPath id="clip0_1747_5566">
<rect width="100" height="74" fill="white" transform="translate(0 25)"/>
</clipPath>
</defs>
</svg>
