<svg width="81" height="5" viewBox="0 0 81 5" fill="none" xmlns="http://www.w3.org/2000/svg">
<path d="M2.29155 4.93783L0.998047 0.381716H1.66925L2.72716 4.08493L3.84731 0.381716H4.41183L5.53198 4.08493L6.5899 0.381716H7.25666L5.96315 4.93783H5.18972L4.12735 1.54836L3.06499 4.93783H2.29155ZM11.9017 4.93783L11.5194 3.87282H9.47029L9.08801 4.93783H8.41681L10.1059 0.381716H10.8838L12.5729 4.93783H11.9017ZM9.67031 3.31601H11.315L10.4926 1.01807L9.67031 3.31601ZM16.8579 4.93783L15.2533 2.86084H14.8577V4.93783H14.2131V0.381716H14.8577V2.28636H15.2444L16.8046 0.381716H17.5958L15.8 2.5515L17.6803 4.93341L16.8579 4.93783ZM21.8008 0.96062H19.9695V2.37916H21.5875V2.95364H19.9695V4.35892H21.8008V4.93783H19.3116V0.381716H21.8008V0.96062ZM27.7394 4.99969C26.7881 4.99969 26.0547 4.44288 26.0547 3.41323V0.381716H26.6992V3.32043C26.6992 4.07168 27.1526 4.41637 27.7394 4.41637C28.3261 4.41637 28.7884 4.06726 28.7884 3.32043V0.381716H29.4329V3.41323C29.4329 4.44288 28.6906 4.99969 27.7394 4.99969ZM33.2601 0.386134C34.1002 0.386134 34.6381 1.01807 34.6381 1.79583C34.6381 2.58686 34.0958 3.19227 33.2601 3.19227H32.14V4.93783H31.4954V0.381716L33.2601 0.386134ZM33.1668 2.63988C33.7046 2.63988 34.0069 2.29519 34.0069 1.78699C34.0069 1.29647 33.7046 0.938524 33.1668 0.938524H32.1444V2.6443H33.1668V2.63988ZM41.9813 0.386134L40.4744 2.76804V4.93783H39.8254V2.77246L38.3141 0.386134H39.0476L40.1499 2.19355L41.2523 0.386134H41.9813ZM45.5462 4.99969C44.2483 4.99969 43.257 4.11145 43.257 2.65756C43.257 1.20809 44.2483 0.324266 45.5462 0.324266C46.8397 0.324266 47.831 1.20809 47.831 2.65756C47.831 4.11145 46.8353 4.99969 45.5462 4.99969ZM45.5462 4.39869C46.4619 4.39869 47.1864 3.76676 47.1864 2.65756C47.1864 1.5572 46.4619 0.929683 45.5462 0.929683C44.6261 0.929683 43.8971 1.56162 43.8971 2.65756C43.8971 3.76676 44.6261 4.39869 45.5462 4.39869ZM51.2625 4.99969C50.3113 4.99969 49.5779 4.44288 49.5779 3.41323V0.381716H50.2224V3.32043C50.2224 4.07168 50.6758 4.41637 51.2625 4.41637C51.8493 4.41637 52.3115 4.06726 52.3115 3.32043V0.381716H52.9561V3.41323C52.9561 4.44288 52.2182 4.99969 51.2625 4.99969ZM57.4945 4.93783L56.3076 2.88735H55.6675V4.93783H55.023V0.381716H56.5655C57.5256 0.381716 57.9612 0.965036 57.9612 1.68093C57.9612 2.31729 57.5834 2.75478 56.9566 2.86084L58.2501 4.93341L57.4945 4.93783ZM55.6675 0.938524V2.40125H56.4766C57.0722 2.40125 57.3433 2.10517 57.3433 1.6721C57.3433 1.24786 57.0766 0.938524 56.4766 0.938524H55.6675ZM63.8775 4.99969C62.9219 4.99969 62.224 4.54452 62.0684 3.77118L62.7263 3.61651C62.8285 4.1468 63.2952 4.45172 63.9042 4.45172C64.3932 4.45172 64.8643 4.25286 64.8554 3.70489C64.851 3.16576 64.2598 3.01551 63.6331 2.84316C62.9219 2.64872 62.2151 2.42776 62.2151 1.58813C62.2151 0.739662 62.9174 0.31543 63.7486 0.31543C64.5532 0.31543 65.2822 0.655697 65.4511 1.43788L64.8243 1.59697C64.7088 1.09319 64.2865 0.867819 63.7753 0.867819C63.3175 0.867819 62.8596 1.06668 62.8596 1.58813C62.8596 2.05656 63.3708 2.19797 63.9531 2.35264C64.6821 2.54708 65.5178 2.77246 65.5178 3.68721C65.5133 4.61081 64.7399 4.99969 63.8775 4.99969ZM69.3138 4.99969C68.0159 4.99969 67.0246 4.11145 67.0246 2.65756C67.0246 1.20809 68.0159 0.324266 69.3138 0.324266C70.6073 0.324266 71.5986 1.20809 71.5986 2.65756C71.5986 4.11145 70.6073 4.99969 69.3138 4.99969ZM69.3138 4.39869C70.2295 4.39869 70.954 3.76676 70.954 2.65756C70.954 1.5572 70.2295 0.929683 69.3138 0.929683C68.3937 0.929683 67.6647 1.56162 67.6647 2.65756C67.6647 3.76676 68.3937 4.39869 69.3138 4.39869ZM75.0346 4.99969C74.0833 4.99969 73.3499 4.44288 73.3499 3.41323V0.381716H73.9944V3.32043C73.9944 4.07168 74.4478 4.41637 75.0346 4.41637C75.6213 4.41637 76.0836 4.06726 76.0836 3.32043V0.381716H76.7281V3.41323C76.7281 4.44288 75.9903 4.99969 75.0346 4.99969ZM79.4352 4.35892H80.9998V4.93783H78.7906V0.381716H79.4352V4.35892Z" fill="white"/>
</svg>
