<svg width="44" height="44" viewBox="0 0 44 44" fill="none" xmlns="http://www.w3.org/2000/svg">
<g clip-path="url(#clip0_1660_8439)">
<path d="M25.9853 11.0037C27.4011 9.90586 29.4352 11.0803 29.1924 12.8553L28.3068 19.3279C28.2339 19.8604 28.3785 20.3999 28.7078 20.8246L32.711 25.9872C33.8089 27.4031 32.6345 29.4372 30.8594 29.1943L24.3868 28.3087C23.8543 28.2359 23.3149 28.3804 22.8902 28.7098L17.7275 32.713C16.3117 33.8109 14.2776 32.6365 14.5204 30.8614L15.406 24.3888C15.4789 23.8563 15.3343 23.3169 15.005 22.8921L11.0018 17.7295C9.9039 16.3137 11.0783 14.2795 12.8534 14.5224L19.326 15.408C19.8585 15.4808 20.3979 15.3363 20.8226 15.0069L25.9853 11.0037Z" fill="#121B28"/>
</g>
<defs>
<clipPath id="clip0_1660_8439">
<rect width="32" height="32" fill="white" transform="translate(16 0.00195312) rotate(30)"/>
</clipPath>
</defs>
</svg>
