<svg width="55" height="55" viewBox="0 0 55 55" fill="none" xmlns="http://www.w3.org/2000/svg">
<g clip-path="url(#clip0_1660_8420)">
<path d="M33.4494 13.0018C34.8652 11.9039 36.8993 13.0783 36.6565 14.8534L35.355 24.3656C35.2822 24.8981 35.4267 25.4375 35.756 25.8623L41.6392 33.4494C42.7371 34.8652 41.5627 36.8993 39.7876 36.6565L30.2754 35.355C29.7429 35.2822 29.2035 35.4267 28.7787 35.756L21.1916 41.6392C19.7758 42.7371 17.7417 41.5627 17.9845 39.7876L19.286 30.2754C19.3589 29.7429 19.2143 29.2035 18.885 28.7787L13.0018 21.1916C11.9039 19.7758 13.0783 17.7417 14.8534 17.9845L24.3656 19.286C24.8981 19.3589 25.4375 19.2143 25.8623 18.885L33.4494 13.0018Z" fill="#C98542"/>
</g>
<defs>
<clipPath id="clip0_1660_8420">
<rect width="40" height="40" fill="white" transform="translate(20) rotate(30)"/>
</clipPath>
</defs>
</svg>
