<svg width="44" height="44" viewBox="0 0 44 44" fill="none" xmlns="http://www.w3.org/2000/svg">
<g clip-path="url(#clip0_1660_8421)">
<path d="M14.5204 12.8534C14.2776 11.0783 16.3117 9.9039 17.7275 11.0018L22.8902 15.005C23.3149 15.3343 23.8543 15.4789 24.3868 15.406L30.8594 14.5204C32.6345 14.2776 33.8089 16.3117 32.711 17.7275L28.7078 22.8902C28.3785 23.3149 28.2339 23.8543 28.3068 24.3868L29.1924 30.8594C29.4352 32.6345 27.4011 33.8089 25.9853 32.711L20.8226 28.7078C20.3979 28.3785 19.8585 28.2339 19.326 28.3068L12.8534 29.1924C11.0783 29.4352 9.9039 27.4011 11.0018 25.9853L15.005 20.8226C15.3343 20.3979 15.4789 19.8585 15.406 19.326L14.5204 12.8534Z" fill="#BDD4F1"/>
</g>
<defs>
<clipPath id="clip0_1660_8421">
<rect width="32" height="32" fill="white" transform="translate(0 16) rotate(-30)"/>
</clipPath>
</defs>
</svg>
