<svg xmlns="http://www.w3.org/2000/svg">

 <!-- arrow -->
	<symbol id="arrow" viewBox="0 0 10 7">
      <g>
         <path d="M0.885 0.5L0 1.40229L5 6.5L10 1.40229L9.115 0.5L5 4.69541L0.885 0.5Z" />
      </g>
   </symbol>

   <!-- double-arrow -->
	<symbol id="double-arrow" viewBox="0 0 24 24">
      <g>
         <path fill="transparent" d="M13 17L18 12L13 7" stroke-width="2" stroke-linecap="round" stroke-linejoin="round"/>
         <path fill="transparent" d="M6 17L11 12L6 7" stroke-width="2" stroke-linecap="round" stroke-linejoin="round"/>
      </g>
   </symbol>

   <!-- facebook -->
	<symbol id="facebook" viewBox="0 0 32 32">
      <g>
         <path d="M18.3333 18.525H21.6667L23 13.125H18.3333V10.425C18.3333 9.0345 18.3333 7.725 21 7.725H23V3.189C22.5653 3.13095 20.924 3 19.1907 3C15.5707 3 13 5.23695 13 9.345V13.125H9V18.525H13V30H18.3333V18.525Z" />
      </g>
   </symbol>

   <!-- instagram -->
	<symbol id="instagram" viewBox="0 0 32 32">
      <g>
         <path d="M20.5 16.5C20.5 17.2911 20.2654 18.0645 19.8259 18.7223C19.3864 19.3801 18.7616 19.8928 18.0307 20.1955C17.2998 20.4983 16.4956 20.5775 15.7196 20.4231C14.9437 20.2688 14.231 19.8878 13.6716 19.3284C13.1122 18.769 12.7312 18.0563 12.5769 17.2804C12.4225 16.5044 12.5017 15.7002 12.8045 14.9693C13.1072 14.2384 13.6199 13.6137 14.2777 13.1741C14.9355 12.7346 15.7089 12.5 16.5 12.5C17.5599 12.5033 18.5754 12.9258 19.3248 13.6752C20.0742 14.4247 20.4967 15.4402 20.5 16.5ZM29 11V22C29 23.8565 28.2625 25.637 26.9497 26.9498C25.637 28.2625 23.8565 29 22 29H11C9.14348 29 7.36301 28.2625 6.05025 26.9498C4.7375 25.637 4 23.8565 4 22V11C4 9.14349 4.7375 7.36301 6.05025 6.05026C7.36301 4.73751 9.14348 4.00001 11 4.00001H22C23.8565 4.00001 25.637 4.73751 26.9497 6.05026C28.2625 7.36301 29 9.14349 29 11ZM22.5 16.5C22.5 15.3133 22.1481 14.1533 21.4888 13.1666C20.8295 12.1799 19.8925 11.4109 18.7961 10.9567C17.6997 10.5026 16.4933 10.3838 15.3295 10.6153C14.1656 10.8468 13.0965 11.4183 12.2574 12.2574C11.4182 13.0965 10.8468 14.1656 10.6153 15.3295C10.3838 16.4934 10.5026 17.6998 10.9567 18.7961C11.4108 19.8925 12.1799 20.8295 13.1666 21.4888C14.1533 22.1481 15.3133 22.5 16.5 22.5C18.0913 22.5 19.6174 21.8679 20.7426 20.7426C21.8679 19.6174 22.5 18.0913 22.5 16.5ZM24.5 10C24.5 9.70334 24.412 9.41333 24.2472 9.16665C24.0824 8.91998 23.8481 8.72772 23.574 8.61419C23.2999 8.50066 22.9983 8.47095 22.7074 8.52883C22.4164 8.58671 22.1491 8.72957 21.9393 8.93935C21.7296 9.14913 21.5867 9.4164 21.5288 9.70737C21.4709 9.99834 21.5007 10.2999 21.6142 10.574C21.7277 10.8481 21.92 11.0824 22.1666 11.2472C22.4133 11.412 22.7033 11.5 23 11.5C23.3978 11.5 23.7794 11.342 24.0607 11.0607C24.342 10.7794 24.5 10.3978 24.5 10Z" />
      </g>
   </symbol>

   <!-- whatsapp -->
	<symbol id="whatsapp" viewBox="0 0 32 32">
      <g>
         <path d="M3.00542 30L4.83062 23.2932C3.62795 21.2316 2.9961 18.8868 3.00002 16.5C3.00002 9.04396 9.04396 3.00002 16.5 3.00002C23.9561 3.00002 30 9.04396 30 16.5C30 23.9561 23.9561 30 16.5 30C14.1143 30.0038 11.7705 29.3725 9.70951 28.1707L3.00542 30ZM11.6279 10.1658C11.4535 10.1766 11.2832 10.2226 11.127 10.3008C10.9806 10.3837 10.8469 10.4874 10.7301 10.6086C10.5681 10.7612 10.4763 10.8935 10.3778 11.0217C9.87882 11.6711 9.61044 12.4681 9.61501 13.287C9.61771 13.9485 9.79051 14.5925 10.0605 15.1946C10.6127 16.4123 11.5212 17.7015 12.7214 18.8963C13.0103 19.1838 13.2924 19.4727 13.5962 19.7414C15.0857 21.0528 16.8608 21.9986 18.7802 22.5035L19.5483 22.6209C19.7981 22.6344 20.0478 22.6155 20.2989 22.6034C20.6921 22.5831 21.076 22.4766 21.4235 22.2915C21.6002 22.2004 21.7728 22.1013 21.9405 21.9945C21.9405 21.9945 21.9986 21.9567 22.1093 21.873C22.2915 21.738 22.4036 21.6422 22.5548 21.4842C22.6668 21.3681 22.764 21.2318 22.8383 21.0765C22.9436 20.8565 23.0489 20.4366 23.0921 20.087C23.1245 19.8197 23.115 19.6739 23.111 19.5834C23.1056 19.439 22.9854 19.2891 22.8545 19.2257L22.0688 18.8733C22.0688 18.8733 20.8943 18.3617 20.1774 18.035C20.1018 18.002 20.0208 17.9832 19.9385 17.9796C19.8461 17.9701 19.7528 17.9805 19.6647 18.0101C19.5767 18.0397 19.4961 18.0877 19.4282 18.1511V18.1484C19.4214 18.1484 19.331 18.2253 18.3549 19.4079C18.2989 19.4832 18.2217 19.5401 18.1332 19.5713C18.0448 19.6026 17.949 19.6068 17.8581 19.5834C17.7701 19.5599 17.684 19.5301 17.6003 19.4943C17.4329 19.4241 17.3748 19.3971 17.2601 19.3472L17.2533 19.3445C16.481 19.0073 15.7659 18.5518 15.1338 17.9945C14.9637 17.846 14.8058 17.684 14.6438 17.5274C14.1126 17.0187 13.6498 16.4433 13.2668 15.8156L13.1871 15.6873C13.1299 15.6011 13.0836 15.5082 13.0494 15.4106C12.9981 15.2121 13.1318 15.0528 13.1318 15.0528C13.1318 15.0528 13.4598 14.6937 13.6124 14.4993C13.7394 14.3377 13.8579 14.1697 13.9674 13.9958C14.1267 13.7393 14.1767 13.476 14.093 13.2722C13.715 12.3488 13.3235 11.4294 12.9212 10.5168C12.8415 10.3359 12.6053 10.2063 12.3906 10.1807C12.3177 10.1726 12.2448 10.1645 12.1719 10.1591C11.9906 10.1501 11.8089 10.1532 11.6279 10.1658Z" />
      </g>
   </symbol>

   <!-- btn-after -->
	<symbol id="btn-after" viewBox="0 0 31 20">
      <g>
         <path d="M30.6142 0.0503622C20.6288 8.97118 7.80944 3.76737 2.20868 0.0503622C0.288419 7.82231 -2.8801 23.1635 5.56904 18.2976C16.1305 12.2151 33.1715 23.7422 30.7712 18.6735C28.3709 13.6049 31.5743 -0.963367 30.6142 0.0503622Z" />
      </g>
   </symbol>

      <!-- swiper-arrow -->
	<symbol id="swiper-arrow" viewBox="0 0 24 25">
      <g>
         <path fill-rule="evenodd" clip-rule="evenodd" d="M13.6757 5.76469C13.2686 5.39149 12.636 5.41899 12.2629 5.82611C11.8897 6.23323 11.9172 6.8658 12.3243 7.23899L16.4292 11.0018L6 11.0018C5.44771 11.0018 5 11.4496 5 12.0018C5 12.5541 5.44771 13.0018 6 13.0018L16.4292 13.0018L12.3243 16.7647C11.9172 17.1379 11.8896 17.7704 12.2628 18.1776C12.636 18.5847 13.2686 18.6122 13.6757 18.239L19.6757 12.739C19.8823 12.5496 20 12.2822 20 12.0019C20 11.7216 19.8824 11.4541 19.6757 11.2647L13.6757 5.76469Z" />
      </g>
   </symbol>

      <!-- count-arrow -->
	<symbol id="count-arrow" viewBox="0 0 7 11">
      <g>
         <path d="M7 5.5C7 5.63154 6.97328 5.7588 6.91985 5.88179C6.86641 6.00544 6.79517 6.10837 6.70611 6.19058L1.79008 10.7287C1.59415 10.9096 1.34478 11 1.04198 11C0.739185 11 0.489821 10.9096 0.293893 10.7287C0.097964 10.5478 -2.9827e-08 10.3176 -4.20453e-08 10.0381C-5.42635e-08 9.75859 0.0979639 9.5284 0.293893 9.34753L4.46183 5.5L0.293892 1.65247C0.0979636 1.4716 -4.26562e-07 1.24141 -4.3878e-07 0.961884C-4.50998e-07 0.682362 0.0979635 0.452168 0.293892 0.271301C0.489821 0.0904341 0.739185 -3.23108e-08 1.04198 -4.55466e-08C1.34478 -5.87823e-08 1.59415 0.090434 1.79008 0.271301L6.70611 4.80942C6.81298 4.90807 6.8885 5.01495 6.93267 5.13005C6.97756 5.24514 7 5.36846 7 5.5Z"/>
      </g>
   </symbol>

      <!--  -->
	<symbol id="" viewBox="">
      <g>
         
      </g>
   </symbol>

      <!--  -->
	<symbol id="" viewBox="">
      <g>
         
      </g>
   </symbol>

</svg>